<?xml version="1.0" standalone="no"?>
<!DOCTYPE svg PUBLIC "-//W3C//DTD SVG 20010904//EN"
 "http://www.w3.org/TR/2001/REC-SVG-20010904/DTD/svg10.dtd">
<svg version="1.0" xmlns="http://www.w3.org/2000/svg"
 width="416.000000pt" height="416.000000pt" viewBox="0 0 416.000000 416.000000"
 preserveAspectRatio="xMidYMid meet">
<metadata>
Created by potrace 1.14, written by Peter Selinger 2001-2017
</metadata>
<g transform="translate(0.000000,416.000000) scale(0.100000,-0.100000)"
fill="#000000" stroke="none">
<path d="M2273 3345 c-46 -44 -79 -65 -105 -65 -37 0 -128 -28 -149 -46 -8 -8
-27 -14 -42 -14 -14 0 -29 -4 -32 -10 -3 -5 -17 -10 -31 -10 -13 0 -24 -4 -24
-10 0 -5 -19 -10 -42 -10 -27 0 -52 -8 -68 -20 -27 -21 -57 -25 -79 -11 -9 6
-21 5 -32 -2 -14 -8 -27 -8 -53 1 -28 10 -39 10 -55 0 -15 -9 -28 -10 -49 -2
-19 7 -33 7 -44 1 -11 -8 -32 -5 -73 7 -45 15 -80 18 -176 14 -74 -2 -124 -9
-131 -16 -7 -7 -27 -12 -45 -12 -27 0 -37 -6 -51 -30 -9 -16 -23 -30 -30 -30
-7 0 -24 -7 -37 -16 -19 -13 -25 -25 -25 -55 0 -21 -4 -41 -10 -44 -5 -3 -10
-13 -10 -22 0 -31 -53 -121 -79 -133 -14 -7 -39 -19 -56 -28 -16 -9 -65 -18
-110 -20 -63 -4 -83 -9 -93 -23 -7 -11 -22 -19 -32 -19 -23 0 -50 -36 -50 -68
0 -25 -24 -62 -75 -115 -16 -18 -34 -45 -40 -62 -8 -24 -17 -31 -42 -33 -37
-4 -48 -18 -58 -79 -4 -24 -12 -43 -19 -43 -7 0 -23 -22 -36 -50 -20 -42 -21
-54 -12 -75 16 -34 15 -77 -2 -149 -13 -53 -12 -62 5 -100 14 -31 19 -65 19
-137 0 -78 4 -101 18 -120 62 -80 101 -268 72 -343 -7 -21 -5 -33 10 -59 27
-44 28 -150 1 -191 -15 -23 -17 -34 -9 -57 12 -36 3 -79 -17 -79 -8 0 -15 -9
-15 -20 0 -11 -4 -20 -10 -20 -17 0 -12 -129 5 -146 8 -9 15 -24 15 -35 0 -10
5 -19 10 -19 6 0 10 -7 10 -15 0 -8 17 -22 38 -32 20 -9 46 -25 56 -35 11 -10
25 -18 32 -18 13 0 84 -38 94 -50 13 -16 103 -50 131 -50 22 0 39 -9 59 -30
19 -20 38 -30 58 -30 16 0 46 -7 66 -15 l37 -15 -7 25 c-6 23 -4 25 29 25 19
0 38 -6 40 -12 4 -10 6 -10 6 0 1 6 10 12 21 12 11 0 20 5 20 10 0 6 20 10 44
10 71 0 106 10 106 31 0 13 11 19 45 25 25 3 45 10 45 15 0 5 16 9 35 9 19 0
35 -4 35 -10 0 -5 7 -10 15 -10 8 0 15 5 15 10 0 6 26 10 59 10 33 0 63 5 66
10 3 6 19 10 36 10 16 0 29 5 29 10 0 6 8 10 18 10 10 0 24 9 32 20 14 20 50
28 50 11 0 -5 17 0 37 10 21 10 52 19 70 19 26 0 33 4 33 20 0 26 22 26 70 -1
31 -17 47 -20 84 -15 30 5 46 12 46 22 0 16 23 18 50 4 13 -7 26 -7 37 -1 10
5 65 17 123 26 58 9 109 21 115 26 5 5 24 9 42 9 23 0 33 5 33 15 0 11 11 15
40 15 22 0 40 5 40 10 0 6 9 10 20 10 11 0 20 5 20 11 0 5 8 9 18 8 23 -4 92
20 92 32 0 5 29 9 65 9 36 0 65 4 65 8 0 5 25 14 55 21 30 7 57 17 60 22 4 5
15 9 26 9 12 0 19 7 19 19 0 15 11 19 68 24 69 7 92 21 92 59 0 13 8 18 26 18
53 0 94 35 94 80 0 47 49 83 63 48 3 -7 3 2 0 20 -4 21 -2 32 7 32 6 0 25 14
41 31 25 27 34 31 76 28 55 -3 124 16 152 43 12 10 35 18 54 18 27 0 44 9 76
40 22 22 47 40 54 40 6 0 26 14 44 30 18 17 37 30 43 30 6 0 21 9 33 21 12 11
29 18 37 16 9 -2 21 1 27 8 19 21 55 99 59 129 2 16 11 37 20 47 16 18 15 65
-5 204 -5 33 -5 61 -2 63 4 1 6 15 3 30 -4 33 35 142 51 142 38 0 94 202 66
236 -6 8 -13 36 -15 64 -2 27 -11 64 -19 81 -9 17 -19 57 -22 88 -3 31 -16 79
-29 107 -13 28 -24 58 -24 67 0 9 -9 22 -20 29 -16 10 -20 24 -20 64 0 57 -17
98 -55 134 -19 18 -25 33 -25 66 0 24 5 44 12 46 17 6 1 26 -35 45 -20 10 -54
15 -94 15 -34 -1 -65 3 -68 8 -4 6 -26 10 -51 10 -30 0 -50 6 -63 19 -34 34
-83 46 -143 34 -54 -11 -285 -10 -500 2 -112 6 -119 8 -149 36 -17 16 -42 29
-54 29 -13 0 -27 5 -30 11 -9 13 -348 8 -362 -6z"/>
</g>
</svg>
